<svg width="34" height="50" viewBox="0 0 34 50" fill="none" xmlns="http://www.w3.org/2000/svg">
<g clip-path="url(#clip0_155_172)">
<path d="M8.33666 49.9999C12.9367 49.9999 16.67 46.2666 16.67 41.6666V33.3333H8.33666C3.73666 33.3333 0.00332642 37.0666 0.00332642 41.6666C0.00332642 46.2666 3.73666 49.9999 8.33666 49.9999Z" fill="#0ACF83"/>
<path d="M0.00332642 25.0001C0.00332642 20.4001 3.73666 16.6667 8.33666 16.6667H16.67V33.3334H8.33666C3.73666 33.3334 0.00332642 29.6001 0.00332642 25.0001Z" fill="#A259FF"/>
<path d="M0.00332642 8.33333C0.00332642 3.73333 3.73666 0 8.33666 0H16.67V16.6667H8.33666C3.73666 16.6667 0.00332642 12.9333 0.00332642 8.33333Z" fill="#F24E1E"/>
<path d="M16.67 0H25.0033C29.6033 0 33.3366 3.73333 33.3366 8.33333C33.3366 12.9333 29.6033 16.6667 25.0033 16.6667H16.67V0Z" fill="#FF7262"/>
<path d="M33.3366 25.0001C33.3366 29.6001 29.6033 33.3334 25.0033 33.3334C20.4033 33.3334 16.67 29.6001 16.67 25.0001C16.67 20.4001 20.4033 16.6667 25.0033 16.6667C29.6033 16.6667 33.3366 20.4001 33.3366 25.0001Z" fill="#1ABCFE"/>
</g>
<defs>
<clipPath id="clip0_155_172">
<rect width="33.34" height="50" fill="white"/>
</clipPath>
</defs>
</svg>
