<svg width="48" height="50" viewBox="0 0 48 50" fill="none" xmlns="http://www.w3.org/2000/svg">
<path fill-rule="evenodd" clip-rule="evenodd" d="M8.36959 8.89811C9.91673 10.1551 10.4971 10.0592 13.4025 9.86534L40.7919 8.22073C41.3728 8.22073 40.8898 7.64121 40.696 7.54492L36.1473 4.25647C35.2756 3.57978 34.1144 2.80484 31.8888 2.9987L5.36758 4.93307C4.40034 5.02897 4.20717 5.51259 4.59234 5.90021L8.36959 8.89811ZM10.014 15.2812V44.0997C10.014 45.6485 10.788 46.228 12.53 46.1321L42.631 44.3904C44.3738 44.2946 44.568 43.2293 44.568 41.9711V13.346C44.568 12.0899 44.0848 11.4125 43.0179 11.5092L11.562 13.346C10.4011 13.4435 10.0139 14.0242 10.0139 15.2812H10.014ZM39.7297 16.8271C39.9226 17.6983 39.7297 18.5688 38.8568 18.6667L37.4065 18.9557V40.2314C36.1473 40.9082 34.9861 41.2951 34.0184 41.2951C32.4692 41.2951 32.0812 40.8112 30.9208 39.3614L21.434 24.4683V38.8778L24.436 39.5552C24.436 39.5552 24.436 41.2951 22.014 41.2951L15.3371 41.6824C15.1432 41.2951 15.3371 40.3288 16.0144 40.1353L17.7568 39.6523V20.6002L15.3376 20.4064C15.1436 19.5351 15.6268 18.2789 16.9828 18.1815L24.1456 17.6986L34.0184 32.7856V19.4392L31.5012 19.1504C31.3081 18.0853 32.0812 17.3119 33.0493 17.216L39.7297 16.8271ZM3.14081 2.3221L30.7272 0.290556C34.1148 1.38432e-05 34.9865 0.194655 37.1157 1.74131L45.9216 7.93058C47.3746 8.99489 47.8589 9.28465 47.8589 10.4449V44.3904C47.8589 46.5178 47.0838 47.776 44.3743 47.9685L12.3382 49.903C10.3043 50 9.33624 49.7102 8.27105 48.3554L1.78625 39.9417C0.62437 38.3929 0.141144 37.2343 0.141144 35.8787V5.70566C0.141144 3.96593 0.91638 2.51469 3.14081 2.3221Z" fill="white"/>
</svg>
